<?xml version="1.0" encoding="utf-8"?>
<!-- Generator: Adobe Illustrator 24.0.2, SVG Export Plug-In . SVG Version: 6.00 Build 0)  -->
<svg version="1.1" id="Capa_1" xmlns="http://www.w3.org/2000/svg" xmlns:xlink="http://www.w3.org/1999/xlink" x="0px" y="0px"
	 viewBox="0 0 864 259" style="enable-background:new 0 0 864 259;" xml:space="preserve">
<style type="text/css">
	.st0{fill:none;stroke:#FFFFFF;stroke-width:2;stroke-miterlimit:10;}
</style>
<g>
	<path class="st0" d="M547.69,239.69c-3.75-18.93-6.92-31.64-8.75-35.15c-10.46-20.12-29.53-22.11-49.65-27.75
		c-6.36-1.78-45.09,54.07-45.09,54.07s-38.74-55.85-45.09-54.07c-20.12,5.64-39.43,7.41-49.9,27.54
		c-1.83,3.51-4.87,16.31-8.41,35.36H547.69z"/>
	<path class="st0" d="M455.89,191.98c-0.45-3.21-8.45-9.2-12.5-9.31c-4.06-0.1-12.33,4.89-12,8.81c0.34,3.92,6.04,9.31,6.04,9.31
		l-1.02,13.7l7.78,11.92l6.73-11.92l-1.54-13.7C449.38,200.79,456.34,195.19,455.89,191.98z"/>
	<path class="st0" d="M443.92,225.99v-43.26c-0.18-0.02-0.36-0.05-0.53-0.06c-4.06-0.1-12.33,4.89-12,8.81
		c0.34,3.92,6.04,9.31,6.04,9.31l-1.02,13.7L443.92,225.99z"/>
	<path class="st0" d="M463.46,148.89c0.12,2.54,0.52,9.95,1.22,15.2c0.11,0.86,0.24,1.67,0.37,2.38c-5.8,2.15-11.19,6.16-15.14,9.67
		c-3.99,3.53-6.51,6.53-6.51,6.53s-2.55-2.79-6.88-6.53c-3.65-3.15-8.57-6.98-14.29-10.37c0-0.48-0.01-1.03-0.02-1.65
		c-0.07-3.8-0.26-9.86-0.38-13.37"/>
	<path class="st0" d="M485.09,88.37c6.22,1.4,8.66,6.92,8.65,9.61c-0.01,3.03-0.83,13.71-2.6,17.13c-1.77,3.42-6.04,8.72-10.52,7.27
		c-0.07-0.02-0.15-0.06-0.22-0.11"/>
	<path class="st0" d="M398.95,122.2c-5.7,2.97-10.98-4.2-12.7-7.68c-1.72-3.48-2.09-14.19-1.96-17.21c0.11-2.67,1.62-7.62,7.86-8.75
		"/>
	<path class="st0" d="M523.42,239.69c-2.01-24.32-3.78-41.01-5.05-44.96c-5.17-16.05-16.93-14.37-29.08-17.94
		c-4.65-1.36-44.56,54.07-44.56,54.07s-41.12-55.85-45.63-54.07c-14.28,5.64-20.87-0.76-28.3,19.36
		c-1.41,3.83-3.13,19.95-4.99,43.54H523.42z"/>
	<path class="st0" d="M431.13,20.9c0.01,0,0.02,0,0.03,0c0.97-0.08,1.96-0.14,2.97-0.17c0.51-0.01,1.02-0.02,1.54-0.02
		c0.7,0,1.39,0.01,2.07,0.03c0.34,0.01,0.68,0.02,1.01,0.04c0.33,0.01,0.66,0.03,0.99,0.05"/>
	<path class="st0" d="M390.67,65.57c0,0.18,0,0.36,0,0.53c0.04,5.97,0.53,13.98,1.47,22.38c0,0,0,0.03,0.01,0.08
		c0,0.01,0,0.02,0,0.03c0.01,0.1,0.02,0.21,0.04,0.31c0.01,0.05,0.01,0.11,0.02,0.17c0.45,4.07,1.02,8.24,1.71,12.3
		c0.09,0.56,0.18,1.1,0.26,1.58c1.25,7.19,2.84,13.96,4.77,19.25c0.28,0.79,0.58,1.54,0.88,2.26c3.28,7.81,12.49,18.33,22,26.29
		c7.96,6.67,16.13,11.55,21.2,11.55c0.18,0,0.37-0.02,0.56-0.03c0.03,0,0.06-0.01,0.09-0.01c0.3-0.02,0.61-0.05,0.93-0.1
		c0.04-0.01,0.08-0.02,0.12-0.02c1.06-0.18,2.15-0.49,3.28-0.97c0.19-0.08,0.39-0.16,0.58-0.25c0.48-0.21,0.98-0.46,1.48-0.73
		c0.5-0.27,1-0.56,1.51-0.87c0.2-0.13,0.4-0.26,0.61-0.39c0.2-0.13,0.41-0.27,0.61-0.41c0.21-0.14,0.42-0.28,0.62-0.42
		c0.62-0.44,1.24-0.91,1.87-1.4c0.42-0.33,0.83-0.67,1.25-1.02c0.63-0.53,1.26-1.09,1.89-1.67c1.05-0.96,2.1-1.99,3.13-3.07
		c0.21-0.22,0.42-0.44,0.63-0.66c0.21-0.22,0.41-0.44,0.62-0.67c0.22-0.24,0.44-0.48,0.65-0.72c1.49-1.65,2.96-3.41,4.37-5.24
		c0.34-0.44,0.67-0.88,1-1.32c0.39-0.52,0.77-1.04,1.15-1.56c1.85-2.58,3.6-5.25,5.18-7.95c0.26-0.45,0.52-0.89,0.77-1.33
		c0.38-0.68,0.75-1.36,1.11-2.03c0.27-0.5,0.54-1.01,0.79-1.51c0.6-1.17,1.15-2.34,1.67-3.49c0.32-0.72,0.62-1.45,0.9-2.19
		c2.29-5.9,3.53-12.54,4.15-19.32c0-0.01,0-0.01,0-0.02c0.03-0.27,0.05-0.54,0.07-0.81c0.06-0.63,0.11-1.26,0.15-1.89
		c0.05-0.75,0.09-1.5,0.13-2.26c0.06-1.1,0.1-2.21,0.13-3.31c0-0.1,0-0.2,0.01-0.3c0.05-2.01,0.07-4.01,0.05-5.99
		c-0.06-8.3-0.61-16.11-0.86-22.27c-0.01-0.18-0.02-0.36-0.02-0.55"/>
	<path class="st0" d="M476.24,40.26c-0.51-0.77-1.03-1.53-1.59-2.27"/>
	<path class="st0" d="M448.59,160.92c0.98-0.44,1.97-0.98,2.99-1.6C450.56,159.95,449.56,160.49,448.59,160.92z"/>
	<path class="st0" d="M453.42,158.1c0.62-0.44,1.24-0.91,1.87-1.4C454.66,157.2,454.04,157.67,453.42,158.1z"/>
	<path class="st0" d="M456.54,155.68c0.63-0.53,1.26-1.09,1.89-1.67C457.8,154.6,457.17,155.16,456.54,155.68z"/>
	<path class="st0" d="M476.24,40.26c-0.5-0.77-1.02-1.53-1.59-2.27C475.21,38.73,475.73,39.49,476.24,40.26"/>
	<polygon class="st0" points="366.35,119.85 362.47,121.12 360.63,92.87 360.79,122.71 356.51,122.71 356.51,107.31 354.61,121.27 
		349.21,119.85 356.51,68.75 362.47,68.75 	"/>
	<rect x="357.78" y="16.17" class="st0" width="3.25" height="54.24"/>
	<path class="st0" d="M481.93,176.14c-9.88-0.79-13.79-11.52-16.88-12.06c-3.09-0.54-21.35,13.95-21.66,18.58
		c3.7,1.24,10.76,7.16,11.67,9.49c0.93,2.34-5.76,8.74-5.76,8.74l1.63,13.59C450.93,214.49,466.8,186.78,481.93,176.14z"/>
	<path class="st0" d="M405.42,176.14c9.88-0.79,13.23-11.51,16.31-12.04c3.09-0.53,21.35,13.94,21.66,18.57
		c-3.71,1.24-10.19,7.16-11.12,9.49c-0.92,2.34,5.77,8.74,5.77,8.74l-1.63,13.59C436.42,214.49,420.55,186.78,405.42,176.14z"/>
	<path class="st0" d="M422.01,70.14c-0.01-0.01-0.01-0.01-0.02-0.01c-1.77-0.53-3.68-1.25-5.75-2.23"/>
	<path class="st0" d="M386.53,65.98c0,5.22-0.55,19.03,0.06,25.52v0.01c1.7-1.52,3.77-2.4,4.83-2.79c0.45-0.16,0.72-0.24,0.72-0.24
		s0,0.03,0.01,0.08c0.01,0.07,0.02,0.19,0.04,0.34c0.22,1.68,1.03,8.06,1.73,12.47c0.09,0.56,0.18,1.1,0.26,1.58
		c0,0,1.15-12.77,4.37-20.89c2.91-7.38,10.83-9.02,11.02-15.73"/>
	<path class="st0" d="M450.17,69.03c4.2,0.18,9.12,1.3,15.44,4.32c19.1,9.12,18.95,28.8,18.94,29.58"/>
	<path class="st0" d="M480.4,122.27c2.29-5.9,3.53-12.54,4.15-19.32c0-0.01,0-0.01,0-0.02c0.03-0.27,0.05-0.54,0.07-0.81
		c0.06-0.63,0.11-1.26,0.15-1.89c0.05-0.75,0.09-1.5,0.13-2.26c0.06-1.1,0.1-2.21,0.13-3.31c0-0.1,0-0.2,0.01-0.3
		c0.05-2.02,0.06-4.02,0.05-5.99h0.01c1.52,0,3.22,1.1,4.35,1.99c0.01,0.01,0.01,0.01,0.01,0.01c0.08,0.06,0.16,0.13,0.24,0.19
		c0.07,0.06,0.15,0.13,0.22,0.18c0.14,0.12,0.26,0.23,0.37,0.33c0.1,0.1,0.2,0.18,0.27,0.25s0.12,0.12,0.15,0.15
		s0.04,0.04,0.04,0.04s-2.96-21.05-3.13-25.4"/>
	<path class="st0" d="M439.74,20.83c-0.33-0.03-0.66-0.04-0.99-0.05c-0.33-0.02-0.67-0.03-1.01-0.04c-0.68-0.02-1.37-0.03-2.07-0.03
		c-0.52,0-1.03,0.01-1.54,0.02c-1.01,0.03-2,0.08-2.97,0.17c-0.01,0-0.02,0-0.03,0"/>
	<path class="st0" d="M482.1,20.49c1.13,8.79,5.29,40.95,6.51,45.82c0,0-0.35-0.08-0.99-0.2c-0.75-0.15-1.92-0.35-3.41-0.56
		c-7.34-1.04-22.43-2.19-34.04,3.48c-6.06,2.96-11.17,7.77-13.73,15.43c-3.12-6.94-8.39-11.44-14.43-14.32
		c-0.01-0.01-0.01-0.01-0.02-0.01c-1.86-0.89-3.79-1.62-5.75-2.23c-2.21-0.67-4.45-1.19-6.67-1.57c-7.15-1.24-14.1-1.12-18.9-0.76
		c-1.67,0.13-3.08,0.28-4.14,0.41c-1.45,0.18-2.27,0.33-2.27,0.33c1.23-4.87,5.39-37.03,6.52-45.82"/>
	<path class="st0" d="M516.82,16.17c0,2.39-1.94,4.32-4.33,4.32H360.37c-2.39,0-4.32-1.93-4.32-4.32l0,0c0-2.39,1.94-4.32,4.32-4.32
		H512.5C514.89,11.85,516.82,13.78,516.82,16.17L516.82,16.17z"/>
	<path class="st0" d="M364.44,68.75c0,2.54-2.06,4.6-4.61,4.6c-2.54,0-4.6-2.06-4.6-4.6c0-2.54,2.06-4.6,4.6-4.6
		C362.38,64.14,364.44,66.21,364.44,68.75z"/>
	<rect x="477.3" y="231.52" class="st0" width="28.64" height="4.77"/>
</g>
</svg>
