<?xml version="1.0" encoding="utf-8"?>
<!-- Generator: Adobe Illustrator 24.0.2, SVG Export Plug-In . SVG Version: 6.00 Build 0)  -->
<svg version="1.1" id="Capa_1" xmlns="http://www.w3.org/2000/svg" xmlns:xlink="http://www.w3.org/1999/xlink" x="0px" y="0px"
	 viewBox="0 0 864 259" style="enable-background:new 0 0 864 259;" xml:space="preserve">
<style type="text/css">
	.st0{fill:none;stroke:#FFFFFF;stroke-width:2;stroke-miterlimit:10;}
</style>
<g>
	<path class="st0" d="M535.4,243.4c-3.8-18.9-6.9-31.6-8.8-35.1c-10.5-20.1-29.5-22.1-49.7-27.8c-6.4-1.8-45.1,54.1-45.1,54.1
		s-38.7-55.9-45.1-54.1c-20.1,5.6-39.4,7.4-49.9,27.5c-1.8,3.5-4.9,16.3-8.4,35.4L535.4,243.4L535.4,243.4z"/>
	<path class="st0" d="M443.6,195.7c-0.5-3.2-8.5-9.2-12.5-9.3c-4.1-0.1-12.3,4.9-12,8.8c0.3,3.9,6,9.3,6,9.3l-1,13.7l7.8,11.9
		l6.7-11.9l-1.5-13.7C437.1,204.5,444.1,198.9,443.6,195.7z"/>
	<path class="st0" d="M431.7,229.7v-43.3c-0.2,0-0.4-0.1-0.5-0.1c-4.1-0.1-12.3,4.9-12,8.8c0.3,3.9,6,9.3,6,9.3l-1,13.7L431.7,229.7
		z"/>
	<path class="st0" d="M451.2,152.6c0.1,2.5,0.5,9.9,1.2,15.2c0.1,0.9,0.2,1.7,0.4,2.4c-5.8,2.1-11.2,6.2-15.1,9.7
		c-4,3.5-6.5,6.5-6.5,6.5s-2.5-2.8-6.9-6.5c-3.7-3.1-8.6-7-14.3-10.4c0-0.5,0-1,0-1.6c-0.1-3.8-0.3-9.9-0.4-13.4"/>
	<path class="st0" d="M472.8,92.1c6.2,1.4,8.7,6.9,8.7,9.6c0,3-0.8,13.7-2.6,17.1c-1.8,3.4-6,8.7-10.5,7.3c-0.1,0-0.2-0.1-0.2-0.1"
		/>
	<path class="st0" d="M386.7,125.9c-5.7,3-11-4.2-12.7-7.7c-1.7-3.5-2.1-14.2-2-17.2c0.1-2.7,1.6-7.6,7.9-8.8"/>
	<path class="st0" d="M511.2,243.4c-2-24.3-3.8-41-5-45c-5.2-16.1-16.9-14.4-29.1-17.9c-4.6-1.4-44.6,54.1-44.6,54.1
		s-41.1-55.9-45.6-54.1c-14.3,5.6-20.9-0.8-28.3,19.4c-1.4,3.8-3.1,19.9-5,43.5H511.2z"/>
	<path class="st0" d="M418.9,24.6C418.9,24.6,418.9,24.6,418.9,24.6c1-0.1,2-0.1,3-0.2c0.5,0,1,0,1.5,0c0.7,0,1.4,0,2.1,0
		c0.3,0,0.7,0,1,0c0.3,0,0.7,0,1,0"/>
	<path class="st0" d="M378.4,69.3c0,0.2,0,0.4,0,0.5c0,6,0.5,14,1.5,22.4c0,0,0,0,0,0.1c0,0,0,0,0,0c0,0.1,0,0.2,0,0.3
		c0,0.1,0,0.1,0,0.2c0.5,4.1,1,8.2,1.7,12.3c0.1,0.6,0.2,1.1,0.3,1.6c1.3,7.2,2.8,14,4.8,19.3c0.3,0.8,0.6,1.5,0.9,2.3
		c3.3,7.8,12.5,18.3,22,26.3c8,6.7,16.1,11.6,21.2,11.6c0.2,0,0.4,0,0.6,0c0,0,0.1,0,0.1,0c0.3,0,0.6-0.1,0.9-0.1c0,0,0.1,0,0.1,0
		c1.1-0.2,2.2-0.5,3.3-1c0.2-0.1,0.4-0.2,0.6-0.3c0.5-0.2,1-0.5,1.5-0.7c0.5-0.3,1-0.6,1.5-0.9c0.2-0.1,0.4-0.3,0.6-0.4
		c0.2-0.1,0.4-0.3,0.6-0.4c0.2-0.1,0.4-0.3,0.6-0.4c0.6-0.4,1.2-0.9,1.9-1.4c0.4-0.3,0.8-0.7,1.3-1c0.6-0.5,1.3-1.1,1.9-1.7
		c1-1,2.1-2,3.1-3.1c0.2-0.2,0.4-0.4,0.6-0.7c0.2-0.2,0.4-0.4,0.6-0.7c0.2-0.2,0.4-0.5,0.6-0.7c1.5-1.6,3-3.4,4.4-5.2
		c0.3-0.4,0.7-0.9,1-1.3c0.4-0.5,0.8-1,1.2-1.6c1.8-2.6,3.6-5.3,5.2-7.9c0.3-0.4,0.5-0.9,0.8-1.3c0.4-0.7,0.8-1.4,1.1-2
		c0.3-0.5,0.5-1,0.8-1.5c0.6-1.2,1.1-2.3,1.7-3.5c0.3-0.7,0.6-1.5,0.9-2.2c2.3-5.9,3.5-12.5,4.1-19.3c0,0,0,0,0,0
		c0-0.3,0-0.5,0.1-0.8c0.1-0.6,0.1-1.3,0.2-1.9c0-0.8,0.1-1.5,0.1-2.3c0.1-1.1,0.1-2.2,0.1-3.3c0-0.1,0-0.2,0-0.3c0-2,0.1-4,0-6
		c-0.1-8.3-0.6-16.1-0.9-22.3c0-0.2,0-0.4,0-0.6"/>
	<path class="st0" d="M464,44c-0.5-0.8-1-1.5-1.6-2.3"/>
	<path class="st0" d="M436.3,164.6c1-0.4,2-1,3-1.6C438.3,163.7,437.3,164.2,436.3,164.6z"/>
	<path class="st0" d="M441.2,161.8c0.6-0.4,1.2-0.9,1.9-1.4C442.4,160.9,441.8,161.4,441.2,161.8z"/>
	<path class="st0" d="M444.3,159.4c0.6-0.5,1.3-1.1,1.9-1.7C445.6,158.3,444.9,158.9,444.3,159.4z"/>
	<path class="st0" d="M464,44c-0.5-0.8-1-1.5-1.6-2.3C463,42.5,463.5,43.2,464,44"/>
	<polygon class="st0" points="354.1,123.6 350.2,124.8 348.4,96.6 348.5,126.4 344.3,126.4 344.3,111 342.4,125 337,123.6 
		344.3,72.5 350.2,72.5 	"/>
	<rect x="345.5" y="19.9" class="st0" width="3.3" height="54.2"/>
	<path class="st0" d="M469.7,179.9c-9.9-0.8-13.8-11.5-16.9-12.1c-3.1-0.5-21.4,13.9-21.7,18.6c3.7,1.2,10.8,7.2,11.7,9.5
		c0.9,2.3-5.8,8.7-5.8,8.7l1.6,13.6C438.7,218.2,454.6,190.5,469.7,179.9z"/>
	<path class="st0" d="M393.2,179.9c9.9-0.8,13.2-11.5,16.3-12c3.1-0.5,21.4,13.9,21.7,18.6c-3.7,1.2-10.2,7.2-11.1,9.5
		c-0.9,2.3,5.8,8.7,5.8,8.7l-1.6,13.6C424.2,218.2,408.3,190.5,393.2,179.9z"/>
	<path class="st0" d="M409.8,73.9C409.8,73.9,409.8,73.9,409.8,73.9c-1.8-0.5-3.7-1.3-5.8-2.2"/>
	<path class="st0" d="M374.3,69.7c0,5.2-0.5,19,0.1,25.5v0c1.7-1.5,3.8-2.4,4.8-2.8c0.5-0.2,0.7-0.2,0.7-0.2s0,0,0,0.1
		c0,0.1,0,0.2,0,0.3c0.2,1.7,1,8.1,1.7,12.5c0.1,0.6,0.2,1.1,0.3,1.6c0,0,1.2-12.8,4.4-20.9c2.9-7.4,10.8-9,11-15.7"/>
	<path class="st0" d="M437.9,72.8c4.2,0.2,9.1,1.3,15.4,4.3c19.1,9.1,19,28.8,18.9,29.6"/>
	<path class="st0" d="M468.2,126c2.3-5.9,3.5-12.5,4.2-19.3c0,0,0,0,0,0c0-0.3,0-0.5,0.1-0.8c0.1-0.6,0.1-1.3,0.1-1.9
		c0-0.8,0.1-1.5,0.1-2.3c0.1-1.1,0.1-2.2,0.1-3.3c0-0.1,0-0.2,0-0.3c0-2,0.1-4,0-6h0c1.5,0,3.2,1.1,4.4,2c0,0,0,0,0,0
		c0.1,0.1,0.2,0.1,0.2,0.2c0.1,0.1,0.1,0.1,0.2,0.2c0.1,0.1,0.3,0.2,0.4,0.3c0.1,0.1,0.2,0.2,0.3,0.3c0.1,0.1,0.1,0.1,0.1,0.2
		c0,0,0,0,0,0s-3-21.1-3.1-25.4"/>
	<path class="st0" d="M427.5,24.6c-0.3,0-0.7,0-1,0c-0.3,0-0.7,0-1,0c-0.7,0-1.4,0-2.1,0c-0.5,0-1,0-1.5,0c-1,0-2,0.1-3,0.2
		c0,0,0,0,0,0"/>
	<path class="st0" d="M469.9,24.2c1.1,8.8,5.3,41,6.5,45.8c0,0-0.3-0.1-1-0.2c-0.8-0.2-1.9-0.3-3.4-0.6c-7.3-1-22.4-2.2-34,3.5
		c-6.1,3-11.2,7.8-13.7,15.4c-3.1-6.9-8.4-11.4-14.4-14.3c0,0,0,0,0,0c-1.9-0.9-3.8-1.6-5.8-2.2c-2.2-0.7-4.5-1.2-6.7-1.6
		c-7.2-1.2-14.1-1.1-18.9-0.8c-1.7,0.1-3.1,0.3-4.1,0.4c-1.5,0.2-2.3,0.3-2.3,0.3c1.2-4.9,5.4-37,6.5-45.8"/>
	<path class="st0" d="M504.6,19.9c0,2.4-1.9,4.3-4.3,4.3H348.1c-2.4,0-4.3-1.9-4.3-4.3l0,0c0-2.4,1.9-4.3,4.3-4.3h152.1
		C502.6,15.6,504.6,17.5,504.6,19.9L504.6,19.9z"/>
	<path class="st0" d="M352.2,72.5c0,2.5-2.1,4.6-4.6,4.6c-2.5,0-4.6-2.1-4.6-4.6s2.1-4.6,4.6-4.6C350.1,67.9,352.2,69.9,352.2,72.5z
		"/>
	<rect x="465.1" y="235.3" class="st0" width="28.6" height="4.8"/>
</g>
</svg>
